<svg xmlns="http://www.w3.org/2000/svg" viewBox="0 0 100 80">
  <defs>
    <linearGradient id="cloudGrad" x1="0%" y1="0%" x2="100%" y2="100%">
      <stop offset="0%" style="stop-color:#1e3a8a"/>
      <stop offset="50%" style="stop-color:#2563eb"/>
      <stop offset="100%" style="stop-color:#38bdf8"/>
    </linearGradient>
  </defs>
  <!-- 云朵主体 -->
  <path d="M75 55c8.3 0 15-6.7 15-15 0-7.5-5.5-13.7-12.7-14.8C75.5 15.5 66.5 8 55.5 8c-9.5 0-17.6 5.8-21 14-1.3-.3-2.6-.5-4-.5C21.4 21.5 14 28.9 14 38c0 9.1 7.4 16.5 16.5 16.5h44.5z" fill="url(#cloudGrad)"/>
  <!-- 鸟的轮廓（简化） -->
  <path d="M35 35c5-8 15-12 25-8 3 1 5 3 6 5-3-1-7-1-10 1-5 3-8 8-8 14" stroke="white" stroke-width="2.5" fill="none" stroke-linecap="round"/>
  <path d="M48 47c2 0 4-1 5-3" stroke="white" stroke-width="2" fill="none" stroke-linecap="round"/>
</svg>
